<svg width="32" height="32" viewBox="0 0 32 32" fill="none" xmlns="http://www.w3.org/2000/svg">
<foreignObject x="-2" y="-2" width="36" height="36"><div xmlns="http://www.w3.org/1999/xhtml" style="backdrop-filter:blur(1px);clip-path:url(#bgblur_0_182_256_clip_path);height:100%;width:100%"></div></foreignObject><g data-figma-bg-blur-radius="2">
<rect width="32" height="32" rx="16" fill="#D9D9D9" fill-opacity="0.2"/>
<rect x="0.537121" y="0.537121" width="30.9258" height="30.9258" rx="15.4629" stroke="white" stroke-opacity="0.2" stroke-width="1.07424"/>
<path d="M19.75 8.4165H17.625C16.6857 8.4165 15.7848 8.78964 15.1207 9.45383C14.4565 10.118 14.0833 11.0189 14.0833 11.9582V14.0832H11.9583V16.9165H14.0833V22.5832H16.9167V16.9165H19.0417L19.75 14.0832H16.9167V11.9582C16.9167 11.7703 16.9913 11.5901 17.1241 11.4573C17.257 11.3245 17.4371 11.2498 17.625 11.2498H19.75V8.4165Z" fill="white" fill-opacity="0.8"/>
</g>
<defs>
<clipPath id="bgblur_0_182_256_clip_path" transform="translate(2 2)"><rect width="32" height="32" rx="16"/>
</clipPath></defs>
</svg>
